<svg width="45" height="40" viewBox="0 0 45 40" fill="none" xmlns="http://www.w3.org/2000/svg">
<rect x="0.403809" y="0.284668" width="43.8299" height="39.7208" rx="8.93034" fill="#323142"/>
<mask id="path-2-inside-1_1_16676" fill="white">
<path d="M29.2808 21.361H22.9413V27.7898H20.4114V21.361H14.1016V19.0692H20.4114V12.6106H22.9413V19.0692H29.2808V21.361Z"/>
</mask>
<path d="M29.2808 21.361H22.9413V27.7898H20.4114V21.361H14.1016V19.0692H20.4114V12.6106H22.9413V19.0692H29.2808V21.361Z" fill="black"/>
<path d="M29.2808 21.361V25.47H33.3899V21.361H29.2808ZM22.9413 21.361V17.2519H18.8322V21.361H22.9413ZM22.9413 27.7898V31.8989H27.0503V27.7898H22.9413ZM20.4114 27.7898H16.3023V31.8989H20.4114V27.7898ZM20.4114 21.361H24.5204V17.2519H20.4114V21.361ZM14.1016 21.361H9.99254V25.47H14.1016V21.361ZM14.1016 19.0692V14.9602H9.99254V19.0692H14.1016ZM20.4114 19.0692V23.1783H24.5204V19.0692H20.4114ZM20.4114 12.6106V8.50154H16.3023V12.6106H20.4114ZM22.9413 12.6106H27.0503V8.50154H22.9413V12.6106ZM22.9413 19.0692H18.8322V23.1783H22.9413V19.0692ZM29.2808 19.0692H33.3899V14.9602H29.2808V19.0692ZM29.2808 17.2519H22.9413V25.47H29.2808V17.2519ZM18.8322 21.361V27.7898H27.0503V21.361H18.8322ZM22.9413 23.6808H20.4114V31.8989H22.9413V23.6808ZM24.5204 27.7898V21.361H16.3023V27.7898H24.5204ZM20.4114 17.2519H14.1016V25.47H20.4114V17.2519ZM18.2106 21.361V19.0692H9.99254V21.361H18.2106ZM14.1016 23.1783H20.4114V14.9602H14.1016V23.1783ZM24.5204 19.0692V12.6106H16.3023V19.0692H24.5204ZM20.4114 16.7196H22.9413V8.50154H20.4114V16.7196ZM18.8322 12.6106V19.0692H27.0503V12.6106H18.8322ZM22.9413 23.1783H29.2808V14.9602H22.9413V23.1783ZM25.1718 19.0692V21.361H33.3899V19.0692H25.1718Z" fill="white" mask="url(#path-2-inside-1_1_16676)"/>
</svg>
