<svg width="22" height="19" viewBox="0 0 22 19" fill="none" xmlns="http://www.w3.org/2000/svg">
<path fill-rule="evenodd" clip-rule="evenodd" d="M0.0210571 6.66301C0.0210571 3.27551 2.99291 0.667236 6.48122 0.667236C8.27937 0.667236 9.86163 1.51037 10.9971 2.60131C12.1325 1.51037 13.7148 0.667236 15.5129 0.667236C19.0012 0.667236 21.9731 3.27551 21.9731 6.66301C21.9731 8.9835 20.9835 11.0241 19.6125 12.749C18.2439 14.471 16.4536 15.9324 14.7395 17.1199C14.0848 17.5735 13.4225 17.9919 12.8163 18.3006C12.2471 18.5905 11.5926 18.856 10.9971 18.856C10.4015 18.856 9.74704 18.5905 9.17784 18.3006C8.57165 17.9919 7.90931 17.5735 7.2546 17.1199C5.54048 15.9324 3.75023 14.471 2.38161 12.749C1.01063 11.0241 0.0210571 8.9835 0.0210571 6.66301ZM6.48122 2.54884C3.87301 2.54884 1.90266 4.46694 1.90266 6.66301C1.90266 8.42356 2.65001 10.0627 3.85462 11.5783C5.06159 13.0969 6.68559 14.4367 8.32612 15.5732C8.94689 16.0033 9.5316 16.3692 10.0317 16.6239C10.5689 16.8975 10.88 16.9744 10.9971 16.9744C11.1141 16.9744 11.4253 16.8975 11.9624 16.6239C12.4625 16.3692 13.0472 16.0033 13.668 15.5732C15.3085 14.4367 16.9325 13.0969 18.1395 11.5783C19.3441 10.0627 20.0915 8.42356 20.0915 6.66301C20.0915 4.46694 18.1211 2.54884 15.5129 2.54884C14.015 2.54884 12.6162 3.44375 11.7429 4.57961C11.5648 4.81122 11.2892 4.94696 10.9971 4.94696C10.7049 4.94696 10.4293 4.81122 10.2512 4.57961C9.37789 3.44375 7.97916 2.54884 6.48122 2.54884Z" fill="#323142"/>
</svg>
