<svg width="15" height="21" viewBox="0 0 15 21" fill="none" xmlns="http://www.w3.org/2000/svg">
<path d="M11.9763 0.88436C9.07475 0.397922 6.09682 0.397922 3.19525 0.88436C2.13521 1.06207 1.29102 1.87587 1.07847 2.93105C0.104764 7.76505 0.0516358 12.7393 0.921876 17.593L1.27618 19.5691C1.38543 20.1785 2.12827 20.422 2.57708 19.9957L6.85374 15.9328C7.26397 15.5431 7.9076 15.5431 8.31783 15.9328L12.5945 19.9957C13.0433 20.422 13.7861 20.1785 13.8954 19.5691L14.2497 17.593C15.1199 12.7393 15.0668 7.76505 14.0931 2.93105C13.8806 1.87587 13.0364 1.06207 11.9763 0.88436Z" fill="#6C5FBC"/>
</svg>
