<svg width="22" height="21" viewBox="0 0 22 21" fill="none" xmlns="http://www.w3.org/2000/svg">
<path fill-rule="evenodd" clip-rule="evenodd" d="M21.6328 12.4811V20.3602H17.0318V12.9987C17.0318 11.1583 16.3992 9.89304 14.7313 9.89304C13.4661 9.89304 12.7184 10.7557 12.3733 11.5609C12.2583 11.8484 12.2008 12.251 12.2008 12.6536V20.3602H7.59982C7.59982 20.3602 7.65734 7.88013 7.59982 6.61487H12.2008V8.57027C12.2008 8.57027 12.2008 8.62777 12.1433 8.62777H12.2008V8.57027C12.8334 7.65008 13.8687 6.26979 16.3417 6.26979C19.3323 6.26979 21.6328 8.28271 21.6328 12.4811ZM2.88328 0.000976562C1.33045 0.000976562 0.295227 1.03619 0.295227 2.35897C0.295227 3.68174 1.27294 4.71697 2.82577 4.71697H2.88328C4.49363 4.71697 5.47134 3.68175 5.47134 2.35897C5.41383 1.03619 4.43611 0.000976562 2.88328 0.000976562ZM0.525873 20.3602H5.06935V6.61489H0.525873V20.3602Z" fill="#081420"/>
</svg>
