<svg width="51" height="51" viewBox="0 0 51 51" fill="none" xmlns="http://www.w3.org/2000/svg">
<rect x="0.531738" y="0.358643" width="50.2588" height="50.2588" rx="25.1294" fill="#F4F0FF"/>
<path d="M26.3519 14.7745L26.3205 14.8477L23.284 21.8945H20.2999C19.5879 21.8945 18.9073 22.041 18.2896 22.3028L20.1219 17.9261L20.1638 17.8214L20.2371 17.6539C20.258 17.591 20.279 17.5282 20.3104 17.4759C21.682 14.3033 23.2317 13.5808 26.3519 14.7745Z" stroke="#936DFF" stroke-width="1.57059" stroke-linecap="round" stroke-linejoin="round"/>
<path d="M31.9956 22.1038C31.5244 21.9572 31.0218 21.8944 30.5192 21.8944H23.2841L26.3205 14.8477L26.3519 14.7744C26.509 14.8268 26.6556 14.9001 26.8126 14.9629L29.1266 15.9366C30.4145 16.4706 31.315 17.0256 31.8595 17.6957C31.9642 17.8214 32.0479 17.9365 32.1212 18.0726C32.2155 18.2192 32.2888 18.3658 32.3306 18.5229C32.3725 18.6171 32.4039 18.7114 32.4249 18.7951C32.7076 19.6746 32.5401 20.7531 31.9956 22.1038Z" stroke="#936DFF" stroke-width="1.57059" stroke-linecap="round" stroke-linejoin="round"/>
<path d="M35.6306 27.0044V29.0462C35.6306 29.2556 35.6202 29.465 35.6097 29.6744C35.4107 33.3287 33.369 35.1715 29.4949 35.1715H21.3278C21.0765 35.1715 20.8252 35.1505 20.5844 35.1191C17.2547 34.8992 15.4747 33.1192 15.2549 29.7896C15.2235 29.5488 15.2025 29.2975 15.2025 29.0462V27.0044C15.2025 24.8998 16.4799 23.0884 18.3018 22.3031C18.93 22.0414 19.6002 21.8948 20.3122 21.8948H30.5315C31.0445 21.8948 31.5471 21.9681 32.0078 22.1042C34.0915 22.7429 35.6306 24.6904 35.6306 27.0044Z" stroke="#936DFF" stroke-width="1.57059" stroke-linecap="round" stroke-linejoin="round"/>
<path d="M20.122 17.926L18.2896 22.3027C16.4677 23.088 15.1903 24.8994 15.1903 27.004V23.9361C15.1903 20.9625 17.3054 18.481 20.122 17.926Z" stroke="#936DFF" stroke-width="1.57059" stroke-linecap="round" stroke-linejoin="round"/>
<path d="M35.6275 23.936V27.0039C35.6275 24.7004 34.0988 22.7424 32.0046 22.1141C32.5491 20.7529 32.7062 19.6849 32.4444 18.7949C32.4235 18.7007 32.3921 18.6065 32.3502 18.5227C34.2977 19.5279 35.6275 21.5906 35.6275 23.936Z" stroke="#936DFF" stroke-width="1.57059" stroke-linecap="round" stroke-linejoin="round"/>
</svg>
